<svg width="32.000000" height="32.000000" viewBox="0 0 32 32" fill="none" xmlns="http://www.w3.org/2000/svg" xmlns:xlink="http://www.w3.org/1999/xlink">
	<defs>
		<clipPath id="clip4020_185">
			<rect id="inst 1" width="32.000000" height="32.000000" fill="white" fill-opacity="0"/>
		</clipPath>
	</defs>
	<rect id="inst 1" width="32.000000" height="32.000000" fill="#FFFFFF" fill-opacity="0"/>
	<g clip-path="url(#clip4020_185)">
		<path id="Vector" d="M17.36 2.66699C19.76 2.66699 20.267 2.69409 21.4929 2.74707C22.906 2.81396 23.88 3.04004 24.72 3.37402C25.6 3.70703 26.3469 4.17407 27.08 4.90698C27.8269 5.63989 28.2799 6.38696 28.627 7.26709C28.96 8.10693 29.174 9.08008 29.24 10.5071C29.307 11.7739 29.3199 12.2671 29.3199 14.9341L29.3199 17.0669C29.3199 19.7339 29.307 20.2271 29.24 21.4939C29.2169 22.6589 28.994 23.7639 28.604 24.7881L28.626 24.7209C28.2789 25.6011 27.8259 26.3479 27.093 27.0811C26.3459 27.8279 25.6 28.281 24.72 28.6279C23.88 28.9609 22.907 29.175 21.4929 29.241C20.226 29.3081 19.72 29.321 17.053 29.321L14.933 29.321C12.266 29.321 11.7729 29.3081 10.4929 29.241C9.328 29.218 8.22302 28.9949 7.19897 28.605L7.26599 28.627C6.34302 28.2739 5.55591 27.7529 4.90698 27.094L4.90601 27.093C4.23999 26.4409 3.71399 25.6489 3.37402 24.7639L3.35901 24.719C2.99194 23.7629 2.76892 22.657 2.74597 21.502L2.74597 21.4919C2.69299 20.45 2.66296 19.229 2.66296 18.002C2.66296 17.7759 2.66394 17.55 2.66602 17.325L2.66602 17.3589L2.66602 14.626C2.66602 12.2261 2.69299 11.719 2.74597 10.4929C2.81299 9.08008 3.03894 8.10596 3.35901 7.26611C3.70593 6.38599 4.15894 5.63892 4.90601 4.90601C5.5509 4.23901 6.33997 3.71606 7.22302 3.38696L7.26599 3.37305C8.22095 3.00195 9.32593 2.77393 10.481 2.74707L10.4929 2.74707C11.72 2.69409 12.226 2.66699 14.626 2.66699L17.36 2.66699ZM17.387 5.06689L14.6 5.06689C12.293 5.06689 11.7999 5.09399 10.6 5.14697C9.30701 5.19995 8.59998 5.41406 8.13293 5.6001C7.50598 5.84009 7.06592 6.13306 6.59998 6.6001C6.13391 7.06689 5.83997 7.50708 5.59998 8.13306C5.427 8.6001 5.19995 9.30591 5.14697 10.613C5.09399 11.813 5.06702 12.293 5.06702 14.613L5.06702 17.386C5.06702 19.7061 5.09399 20.186 5.14697 21.386C5.19995 22.679 5.41394 23.386 5.59998 23.853C5.83997 24.48 6.13293 24.9199 6.59998 25.386C7.06702 25.8521 7.50696 26.146 8.13293 26.386C8.59998 26.573 9.30591 26.7859 10.6129 26.8391C11.906 26.906 12.3729 26.9189 15.2529 26.9189L16.7329 26.9189C19.626 26.9189 20.08 26.906 21.386 26.8391C22.679 26.7859 23.386 26.572 23.8529 26.386C24.48 26.146 24.9199 25.853 25.386 25.386C25.8519 24.9189 26.146 24.479 26.386 23.853C26.573 23.386 26.786 22.6799 26.839 21.386C26.906 20.0791 26.9189 19.626 26.9189 16.7329L26.9189 15.2661C26.9189 12.373 26.906 11.906 26.839 10.5989C26.786 9.30591 26.572 8.59888 26.386 8.13208C26.1599 7.53101 25.819 7.01807 25.387 6.6001L25.386 6.59888C24.9659 6.16602 24.454 5.82495 23.881 5.60791L23.8529 5.59888C23.121 5.323 22.275 5.15796 21.391 5.146L21.386 5.146C20.3579 5.09399 19.1549 5.06396 17.944 5.06396C17.7479 5.06396 17.552 5.06494 17.356 5.06592L17.386 5.06592L17.387 5.06689ZM16 9.14697C19.781 9.14697 22.8469 12.2119 22.8469 15.9939C22.8469 19.7759 19.782 22.8411 16 22.8411C12.219 22.8411 9.15295 19.7759 9.15295 15.9939C9.15295 12.2119 12.218 9.14697 16 9.14697ZM16 11.5469C13.5439 11.5469 11.553 13.5381 11.553 15.9939C11.553 18.45 13.5439 20.4409 16 20.4409C18.4559 20.4409 20.447 18.45 20.447 15.9939C20.447 13.5381 18.4559 11.5469 16 11.5469ZM23.1069 7.28003C23.991 7.28003 24.7069 7.99609 24.7069 8.87988C24.7069 9.76392 23.991 10.48 23.1069 10.48C22.223 10.48 21.507 9.76392 21.507 8.87988C21.507 7.99609 22.223 7.28003 23.1069 7.28003Z" fill="#FFFFFF" fill-opacity="1.000000" fill-rule="nonzero"/>
	</g>
</svg>
