<svg width="32.000000" height="32.000000" viewBox="0 0 32 32" fill="none" xmlns="http://www.w3.org/2000/svg" xmlns:xlink="http://www.w3.org/1999/xlink">
	<defs>
		<clipPath id="clip4020_191">
			<rect id="pinterest 1" width="32.000000" height="32.000000" fill="white" fill-opacity="0"/>
		</clipPath>
	</defs>
	<rect id="pinterest 1" width="32.000000" height="32.000000" fill="#FFFFFF" fill-opacity="0"/>
	<g clip-path="url(#clip4020_191)">
		<path id="Vector" d="M16 2.66699C8.65698 2.69409 2.71399 8.65308 2.71399 16C2.71399 21.5989 6.16602 26.3931 11.057 28.3679L11.146 28.3999C11.0129 27.3469 10.9189 25.7329 11.186 24.573L12.746 17.946C12.746 17.946 12.3459 17.146 12.3459 15.9729C12.3459 14.1199 13.426 12.7461 14.7729 12.7461C15.906 12.7461 16.4659 13.5989 16.4659 14.613C16.4659 15.76 15.733 17.4661 15.3459 19.053C15.026 20.386 16.0129 21.4661 17.333 21.4661C19.7059 21.4661 21.52 18.9729 21.52 15.373C21.52 12.1731 19.2271 9.95996 15.947 9.95996C15.871 9.95605 15.783 9.9541 15.694 9.9541C12.505 9.9541 9.92102 12.5391 9.92102 15.7271C9.92102 15.729 9.92102 15.731 9.92102 15.7329C9.92102 16.8799 10.361 18.106 10.908 18.7729C11.015 18.906 11.028 19.0259 10.988 19.1599L10.615 20.667C10.562 20.907 10.415 20.9739 10.175 20.854C8.495 20.0669 7.45496 17.6541 7.45496 15.6809C7.45496 11.481 10.522 7.62793 16.282 7.62793C20.895 7.62793 24.509 10.908 24.509 15.321C24.509 19.9209 21.6021 23.614 17.576 23.614C16.243 23.614 14.963 22.907 14.536 22.0811L13.696 25.241C13.265 26.5779 12.704 27.739 12.0079 28.804L12.042 28.748C13.212 29.1199 14.558 29.335 15.953 29.335C23.317 29.335 29.286 23.365 29.286 16.002C29.286 8.65503 23.344 2.69604 16.004 2.66895L16.001 2.66895L16 2.66699Z" fill="#FFFFFF" fill-opacity="1.000000" fill-rule="nonzero"/>
	</g>
</svg>
