<svg width="32.000000" height="32.000000" viewBox="0 0 32 32" fill="none" xmlns="http://www.w3.org/2000/svg" xmlns:xlink="http://www.w3.org/1999/xlink">
	<defs>
		<clipPath id="clip4020_189">
			<rect id="tw 1" width="32.000000" height="32.000000" fill="white" fill-opacity="0"/>
		</clipPath>
	</defs>
	<rect id="tw 1" width="32.000000" height="32.000000" fill="#FFFFFF" fill-opacity="0"/>
	<g clip-path="url(#clip4020_189)">
		<path id="Vector" d="M29.333 7.84009C28.333 8.33301 27.333 8.50708 26.1599 8.66699C27.333 8 28.1599 7 28.4929 5.66699C27.4879 6.2749 26.317 6.73804 25.0699 6.98901L25 7.00098C23.969 5.98706 22.5599 5.35498 21.004 5.33398L21 5.33398C18.1599 5.33398 15.667 7.84106 15.667 10.8411C15.667 11.334 15.667 11.668 15.84 12.001C11.262 11.823 7.22095 9.66406 4.52893 6.36206L4.50696 6.33398C4.08191 7.06006 3.83093 7.93188 3.83093 8.86304C3.83093 8.97192 3.83398 9.08105 3.84094 9.18896L3.83997 9.17407C3.87402 11.052 4.849 12.6951 6.31299 13.655L6.33398 13.668C5.49402 13.668 4.66699 13.335 3.82703 13.001C3.82703 15.668 5.66699 17.8411 8.15991 18.334C7.66699 18.5071 7.15991 18.5071 6.66699 18.5071C6.33398 18.5071 6 18.5071 5.66699 18.334C6.33398 20.5071 8.33398 22.1741 10.84 22.1741C9.03992 23.6289 6.724 24.509 4.203 24.509C4.13196 24.509 4.06091 24.5081 3.98999 24.5071L4.00098 24.5071L2.66797 24.5071C5.03296 26.0159 7.90393 26.936 10.984 27L11.001 27C21.001 27 26.5079 18.667 26.5079 11.4929L26.5079 10.8259C27.655 10.0359 28.601 9.03906 29.3109 7.88208L29.335 7.84009L29.333 7.84009Z" fill="#FFFFFF" fill-opacity="1.000000" fill-rule="nonzero"/>
	</g>
</svg>
