<svg width="129.864868" height="130.000000" viewBox="0 0 129.865 130" fill="none" xmlns="http://www.w3.org/2000/svg" xmlns:xlink="http://www.w3.org/1999/xlink">
	<desc>
			Created with Pixso.
	</desc>
	<defs/>
	<path id="Play_hover" d="M58.521 0.135742C58.0219 0.256104 55.5699 0.686523 53.0729 1.09106C6.17413 8.698 -16.0083 65.9043 13.0263 104.366C22.0682 116.344 42.8323 129.906 43.8607 124.506C43.9894 123.832 42.7534 122.978 39.6854 121.624C27.0991 116.064 15.7097 105.113 9.49548 92.5938C-13.0744 47.1277 25.5402 -4.32324 75.965 4.02856C83.5399 5.28369 84.8555 2.66772 77.4319 1.11133C74.053 0.402832 60.3439 -0.303955 58.521 0.13623L58.521 0.135742ZM58.8236 13.5427C49.9562 14.8494 38.5455 19.3896 38.5455 21.6113C38.5455 23.3352 39.826 23.2017 44.5063 20.99C70.1424 8.87793 101.354 22.1306 110.64 49.0715C126.075 93.8525 75.1194 131.76 36.427 104.279C14.9264 89.009 9.96844 58.679 25.4031 36.8396C29.4989 31.0442 27.3436 28.594 23.1612 34.2915C-2.60779 69.3967 24.2964 118.982 67.7711 116.507C111.658 114.008 132.641 61.4207 102.441 29.6194C91.3694 17.9612 73.5089 11.3779 58.8242 13.5415L58.8236 13.5427ZM111.588 21.4487C110.688 22.3489 111.376 23.9602 114.257 27.7039C135.62 55.458 128.626 96.9429 99.2939 116.46C86.0768 125.255 74.4719 127.692 52.7708 126.233C50.7271 126.096 50.3491 126.252 50.3491 127.237C50.3491 131.711 76.324 130.498 89.2029 125.422C126.968 110.539 141.858 62.4946 119.094 28.9739C114.774 22.6138 112.602 20.4353 111.588 21.4495L111.588 21.4487ZM47.2645 44.1106C46.191 45.2964 46.0991 46.6868 45.9347 64.2031C45.6647 92.9998 42.7985 92.1292 77.569 73.811C94.5145 64.8831 94.6094 65.1633 70.3056 52.4143C51.3039 42.4468 49.3949 41.7583 47.2645 44.1106ZM68.2637 55.0051C86.726 64.6482 86.8221 64.708 85.5308 65.7798C84.0829 66.9819 51.1614 84 50.285 84C49.5812 84 49.4412 80.8352 49.4412 64.9324C49.4412 51.5574 49.6388 45.8643 50.1022 45.8643C50.4654 45.8643 58.6385 49.9778 68.2643 55.0051L68.2637 55.0051Z" fill="#BDAE82" fill-opacity="1.000000" fill-rule="nonzero"/>
</svg>
